<?xml version="1.0" encoding="UTF-8" standalone="no"?>
<!-- Created with Inkscape (http://www.inkscape.org/) -->

<svg
   xmlns:dc="http://purl.org/dc/elements/1.1/"
   xmlns:cc="http://creativecommons.org/ns#"
   xmlns:rdf="http://www.w3.org/1999/02/22-rdf-syntax-ns#"
   xmlns:svg="http://www.w3.org/2000/svg"
   xmlns="http://www.w3.org/2000/svg"
   xmlns:sodipodi="http://sodipodi.sourceforge.net/DTD/sodipodi-0.dtd"
   xmlns:inkscape="http://www.inkscape.org/namespaces/inkscape"
   id="svg5012"
   height="83.460762mm"
   width="201.55502mm"
   version="1.1"
   viewBox="0 0 714.17134 295.72711"
   inkscape:version="0.91 r13725"
   sodipodi:docname="LogoNegro.svg">
  <defs
     id="defs33" />
  <sodipodi:namedview
     pagecolor="#ffffff"
     bordercolor="#666666"
     borderopacity="1"
     objecttolerance="10"
     gridtolerance="10"
     guidetolerance="10"
     inkscape:pageopacity="0"
     inkscape:pageshadow="2"
     inkscape:window-width="1922"
     inkscape:window-height="1041"
     id="namedview31"
     showgrid="false"
     inkscape:zoom="0.44851478"
     inkscape:cx="412.07069"
     inkscape:cy="-107.4139"
     inkscape:window-x="-2"
     inkscape:window-y="0"
     inkscape:window-maximized="0"
     inkscape:current-layer="svg5012"
     fit-margin-top="1"
     fit-margin-left="1"
     fit-margin-right="1"
     fit-margin-bottom="1" />
  <metadata
     id="metadata5017">
    <rdf:RDF>
      <cc:Work
         rdf:about="">
        <dc:format>image/svg+xml</dc:format>
        <dc:type
           rdf:resource="http://purl.org/dc/dcmitype/StillImage" />
        <dc:title></dc:title>
      </cc:Work>
    </rdf:RDF>
  </metadata>
  <g
     id="layer1"
     transform="translate(-21.457006,-111.84443)">
    <g
       id="g4340"
       transform="matrix(1.6676,0,0,1.6676,-213.49,-562.49)">
      <path
         id="path4342"
         d="m 245.05,535.08 q -15.625,12.237 -38.028,12.237 -15.061,0 -27.109,-5.4595 -11.86,-5.4595 -20.144,-14.872 -8.0951,-9.6012 -12.425,-22.403 -4.3299,-12.99 -4.3299,-27.674 0,-14.684 4.3299,-27.486 4.3299,-12.99 12.425,-22.403 8.2833,-9.6012 20.144,-15.061 12.048,-5.4595 27.109,-5.4595 15.061,0 26.921,5.4595 11.86,5.4595 19.955,15.061 8.2834,9.4129 12.613,22.403 4.3299,12.802 4.3299,27.486 0,16.567 -5.2712,30.121 -5.083,13.555 -14.872,23.156 l 20.897,15.061 -4.3299,5.836 -22.214,-16.002 z m -0.94128,-9.6011 q 9.0364,-9.0364 13.743,-21.461 4.7064,-12.425 4.7064,-27.109 0,-12.99 -3.7652,-24.474 -3.7652,-11.484 -10.919,-19.955 -7.1538,-8.6599 -17.508,-13.743 -10.166,-5.083 -23.344,-5.083 -13.178,0 -23.532,5.083 -10.354,5.083 -17.508,13.743 -7.1538,8.4716 -10.919,19.955 -3.7652,11.484 -3.7652,24.474 0,12.99 3.7652,24.474 3.7652,11.484 10.919,20.144 7.1538,8.4716 17.508,13.555 10.354,5.083 23.532,5.083 18.638,0 31.439,-9.9777 l -20.332,-14.496 4.3299,-5.836 21.65,15.625 z"
         inkscape:connector-curvature="0" />
      <path
         id="path4344"
         d="m 364.06,544.12 -7.1538,0 0,-20.708 -0.37652,0 q -1.8826,5.4595 -5.4595,9.7894 -3.3886,4.1417 -8.0951,7.1538 -4.5182,3.0121 -9.9777,4.5182 -5.4595,1.5061 -11.107,1.5061 -8.4716,0 -14.496,-2.0708 -5.836,-2.0708 -9.6012,-5.4595 -3.7652,-3.3886 -6.0242,-7.5303 -2.0708,-4.3299 -3.0121,-8.6599 -0.94129,-4.3299 -1.1295,-8.2834 -0.18826,-4.1417 -0.18826,-7.1538 l 0,-59.866 7.1538,0 0,61.184 q 0,3.7652 0.56477,9.2246 0.56477,5.2712 3.2004,10.354 2.8239,4.8947 8.2834,8.4716 5.4595,3.5769 15.437,3.5769 8.0951,0 14.496,-3.0121 6.589,-3.0121 11.107,-8.2833 4.5182,-5.4595 6.7773,-12.802 2.4474,-7.5303 2.4474,-16.378 l 0,-52.336 7.1538,0 0,96.765 z"
         inkscape:connector-curvature="0" />
      <path
         id="path4346"
         d="m 388.07,496.68 0,1.1295 q 0,8.4716 2.2591,16.19 2.2591,7.7186 6.589,13.555 4.5182,5.836 11.107,9.2246 6.7773,3.3886 15.625,3.3886 14.496,0 22.967,-7.5303 8.4716,-7.7186 11.672,-21.273 l 7.1538,0 q -3.2004,16.943 -13.931,25.98 -10.542,9.0364 -28.05,9.0364 -10.731,0 -18.826,-3.7652 -7.9068,-3.9534 -13.366,-10.542 -5.2712,-6.7773 -7.9068,-15.814 -2.6356,-9.2246 -2.6356,-19.767 0,-10.166 2.6356,-19.391 2.8239,-9.4129 8.2834,-16.378 5.4595,-7.1538 13.555,-11.295 8.2833,-4.3299 19.391,-4.3299 10.166,0 17.884,3.7652 7.9068,3.7652 13.178,10.354 5.2712,6.4008 7.9068,15.061 2.8239,8.4716 2.8239,18.261 0,0.94128 -0.18825,2.2591 0,1.1296 0,1.8826 l -78.127,0 z m 70.973,-6.2125 q -0.37652,-7.9068 -2.6356,-14.872 -2.2591,-7.1538 -6.7773,-12.425 -4.3299,-5.4595 -10.731,-8.6599 -6.2125,-3.2004 -14.308,-3.2004 -8.6599,0 -15.249,3.3886 -6.589,3.2004 -11.107,8.6599 -4.5182,5.2712 -6.9655,12.425 -2.4474,7.1538 -3.0121,14.684 l 70.785,0 z"
         inkscape:connector-curvature="0" />
      <path
         id="path4348"
         d="m 478.17,495.74 q 0,-10.354 2.8239,-19.391 3.0121,-9.2246 8.6599,-16.19 5.6477,-6.9655 13.931,-10.919 8.2833,-4.1417 19.014,-4.1417 10.7307,0 19.014,4.1417 8.2833,3.9534 13.931,10.919 5.6477,6.9655 8.4716,16.19 3.0121,9.0364 3.0121,19.391 0,10.354 -3.0121,19.579 -2.8239,9.2246 -8.4716,16.19 -5.6477,6.7773 -13.931,10.919 -8.2833,3.9534 -19.014,3.9534 -10.7307,0 -19.014,-3.9534 -8.2834,-4.1417 -13.931,-10.919 -5.6477,-6.9655 -8.6599,-16.19 -2.8239,-9.2246 -2.8239,-19.579 z m 7.1538,0 q 0,8.6599 2.4474,16.755 2.4474,7.9068 7.1538,14.119 4.7064,6.2125 11.672,9.9777 6.9655,3.5769 16.002,3.5769 9.0364,0 16.002,-3.5769 6.9655,-3.7652 11.672,-9.9777 4.7064,-6.2125 7.1538,-14.119 2.4474,-8.0951 2.4474,-16.755 0,-8.6599 -2.4474,-16.567 -2.4474,-8.0951 -7.1538,-14.308 -4.7064,-6.2125 -11.672,-9.7894 -6.9655,-3.7652 -16.002,-3.7652 -9.0364,0 -16.002,3.7652 -6.9655,3.5769 -11.672,9.7894 -4.7064,6.2125 -7.1538,14.308 -2.4474,7.9068 -2.4474,16.567 z"
         inkscape:connector-curvature="0" />
    </g>
    <g
       id="text4350"
       transform="matrix(1.6676,0,0,1.6676,-2558.1,-579.17)">
      <g
         id="g11">
        <path
           id="path4420"
           d="m 1751.7,566.87 0,10.779 -0.063,0 q -0.5641,-2.1935 -2.2249,-3.5409 -1.6607,-1.3474 -4.2302,-1.3474 -1.6608,0 -2.9455,0.68938 -1.2848,0.68937 -2.1622,1.8488 -0.846,1.1594 -1.3161,2.6948 -0.4387,1.5354 -0.4387,3.2275 0,1.8174 0.4701,3.3529 0.47,1.5354 1.3474,2.6635 0.9087,1.0967 2.1621,1.7234 1.2848,0.62671 2.8829,0.62671 2.4755,0 4.1362,-1.3474 1.6921,-1.3474 2.3189,-3.5096 l 0.063,0 0,4.5123 0.6267,0 0,-22.373 -0.6267,0 z m 0,14.352 q 0,1.5668 -0.4387,2.9769 -0.4387,1.4101 -1.2847,2.4755 -0.8147,1.0654 -2.0368,1.6921 -1.1908,0.62671 -2.7575,0.62671 -1.5668,0 -2.7575,-0.62671 -1.1594,-0.6267 -1.9428,-1.6921 -0.7521,-1.0967 -1.1594,-2.5068 -0.3761,-1.4101 -0.3761,-2.9455 0,-1.4101 0.3447,-2.7888 0.3761,-1.4101 1.1281,-2.5068 0.752,-1.1281 1.9428,-1.8174 1.1907,-0.72071 2.8202,-0.72071 2.9455,0 4.7316,2.0368 1.7861,2.0055 1.7861,5.797 z"
           inkscape:connector-curvature="0" />
        <path
           id="path4422"
           d="m 1756.6,570.03 0,-3.1649 -0.6267,0 0,3.1649 0.6267,0 z m 0,19.209 0,-16.106 -0.6267,0 0,16.106 0.6267,0 z"
           inkscape:connector-curvature="0" />
        <path
           id="path4424"
           d="m 1770.5,577.9 0.6267,0 q 0,-2.6948 -1.5668,-3.9169 -1.5668,-1.2221 -4.2616,-1.2221 -1.5041,0 -2.5382,0.37602 -1.034,0.37603 -1.6921,0.9714 -0.658,0.59537 -0.94,1.3161 -0.2821,0.72072 -0.2821,1.3788 0,1.3161 0.4701,2.0995 0.47,0.78338 1.4727,1.2221 0.6894,0.31335 1.5668,0.56403 0.8774,0.25068 2.0368,0.5327 1.0341,0.25069 2.0368,0.50137 1.0027,0.25068 1.7548,0.68938 0.7834,0.40736 1.2534,1.0654 0.5014,0.65804 0.5014,1.7234 0,1.0341 -0.5014,1.7548 -0.47,0.72071 -1.2221,1.1907 -0.752,0.4387 -1.6921,0.65805 -0.9087,0.18801 -1.7861,0.18801 -2.8515,0 -4.387,-1.2534 -1.5041,-1.2848 -1.5041,-4.0109 l -0.6267,0 q 0,3.0395 1.6295,4.4496 1.6607,1.4101 4.8883,1.4101 1.0341,0 2.0681,-0.25068 1.0654,-0.21935 1.8801,-0.75205 0.8461,-0.5327 1.3475,-1.3788 0.5327,-0.84605 0.5327,-2.0681 0,-1.1594 -0.4701,-1.8801 -0.4387,-0.72071 -1.1907,-1.1907 -0.7207,-0.47003 -1.6608,-0.72072 -0.9087,-0.28201 -1.8488,-0.5327 -1.3161,-0.34469 -2.3188,-0.59537 -0.9714,-0.25068 -1.8174,-0.59537 -0.8148,-0.34469 -1.3161,-0.9714 -0.4701,-0.65804 -0.4701,-1.8488 0,-0.21935 0.1254,-0.78338 0.1253,-0.56404 0.5954,-1.1281 0.47,-0.59537 1.4414,-1.0341 0.9714,-0.47003 2.6635,-0.47003 1.1594,0 2.0995,0.25068 0.9714,0.25068 1.6607,0.81472 0.6894,0.5327 1.0654,1.3788 0.3761,0.84606 0.3761,2.0681 z"
           inkscape:connector-curvature="0" />
        <path
           id="path4426"
           d="m 1774.2,581.31 13.474,0 q 0.063,-1.6608 -0.3447,-3.1962 -0.376,-1.5354 -1.2534,-2.7262 -0.8461,-1.1907 -2.2248,-1.9115 -1.3474,-0.72071 -3.2276,-0.72071 -1.3474,0 -2.6321,0.56404 -1.2848,0.56403 -2.2562,1.6608 -0.9714,1.0654 -1.5667,2.6322 -0.5954,1.5668 -0.5954,3.5722 0,1.7861 0.4074,3.3529 0.4073,1.5354 1.2534,2.6948 0.846,1.1281 2.1621,1.7548 1.3474,0.62671 3.2275,0.59537 2.7576,0 4.6377,-1.5354 1.8801,-1.5668 2.2248,-4.387 l -0.6267,0 q -0.4074,2.6635 -2.0995,4.0109 -1.6608,1.3161 -4.1989,1.3161 -1.7235,0 -2.9142,-0.59537 -1.1908,-0.59537 -1.9428,-1.6294 -0.752,-1.0341 -1.1281,-2.4128 -0.3447,-1.4101 -0.376,-3.0395 z m 12.848,-0.62671 -12.848,0 q 0.094,-1.6921 0.6267,-3.0395 0.5327,-1.3474 1.3788,-2.2875 0.8774,-0.97139 2.0054,-1.4728 1.1594,-0.50136 2.4755,-0.50136 1.5668,0 2.7575,0.59537 1.1908,0.56403 1.9742,1.5668 0.8147,1.0027 1.222,2.3502 0.4074,1.3161 0.4074,2.7888 z"
           inkscape:connector-curvature="0" />
        <path
           id="path4428"
           d="m 1792.2,571.07 0.6267,0 q 0,-0.28202 0.094,-0.59537 0.1253,-0.34469 0.3133,-0.62671 0.2194,-0.28202 0.5014,-0.43869 0.282,-0.18801 0.5954,-0.18801 0.5013,0 0.9714,0.28201 0.47,0.28202 0.94,0.62671 0.47,0.34469 0.9714,0.62671 0.5014,0.28202 1.0967,0.28202 1.0968,0 1.6295,-0.72072 0.5327,-0.72071 0.5327,-1.6294 l -0.6267,0 q 0,0.65805 -0.4074,1.1908 -0.4073,0.5327 -1.1281,0.5327 -0.47,0 -0.94,-0.28202 -0.47,-0.28202 -0.9714,-0.62671 -0.5014,-0.34469 -1.0341,-0.6267 -0.5013,-0.28202 -1.034,-0.28202 -0.4074,0 -0.8148,0.21935 -0.376,0.21934 -0.6893,0.59537 -0.2821,0.34469 -0.4701,0.78338 -0.1566,0.4387 -0.1566,0.87739 z m -1.9742,2.0681 0,16.106 0.6267,0 0,-9.1186 q 0,-1.3474 0.3761,-2.5695 0.376,-1.2221 1.0967,-2.1308 0.752,-0.94006 1.8488,-1.4728 1.0967,-0.56403 2.5381,-0.56403 1.0341,0 1.9428,0.31335 0.9401,0.28202 1.6295,0.94006 0.7207,0.62671 1.128,1.6294 0.4074,0.97139 0.4074,2.3815 l 0,10.591 0.6267,0 0,-10.685 q 0,-1.4101 -0.4387,-2.4755 -0.4073,-1.0967 -1.1907,-1.8174 -0.7521,-0.75205 -1.8175,-1.1281 -1.034,-0.37602 -2.2875,-0.37602 -1.1907,0 -2.1621,0.34469 -0.9714,0.31335 -1.7234,0.90872 -0.7208,0.59537 -1.2221,1.3788 -0.47,0.78338 -0.6894,1.7234 l -0.063,0 0,-3.9796 -0.6267,0 z"
           inkscape:connector-curvature="0" />
        <path
           id="path4430"
           d="m 1805.7,581.19 q 0,-1.5041 0.4073,-2.9142 0.4387,-1.4101 1.2848,-2.4755 0.846,-1.0967 2.0681,-1.7548 1.2534,-0.65804 2.8828,-0.65804 1.5982,0 2.8202,0.65804 1.2534,0.65804 2.0995,1.7548 0.8461,1.0654 1.2534,2.4755 0.4387,1.4101 0.4387,2.9142 0,1.5354 -0.4387,2.9455 -0.4073,1.4101 -1.2534,2.5068 -0.8461,1.0654 -2.0995,1.7234 -1.222,0.62671 -2.8202,0.62671 -1.6294,0 -2.8828,-0.62671 -1.2221,-0.65804 -2.0681,-1.7234 -0.8461,-1.0967 -1.2848,-2.5068 -0.4073,-1.4101 -0.4073,-2.9455 z m -0.6268,0 q 0,1.6608 0.4701,3.1962 0.47,1.5041 1.3787,2.6635 0.9401,1.1594 2.2875,1.8488 1.3474,0.68938 3.1022,0.68938 1.7861,0 3.1335,-0.68938 1.3475,-0.68937 2.2562,-1.8488 0.9401,-1.1594 1.4101,-2.6635 0.47,-1.5354 0.47,-3.1962 0,-1.6608 -0.47,-3.1649 -0.47,-1.5354 -1.4101,-2.6948 -0.9087,-1.1594 -2.2562,-1.8488 -1.3474,-0.72071 -3.1022,-0.72071 -1.7861,0 -3.1335,0.72071 -1.3474,0.68938 -2.2875,1.8488 -0.9087,1.1594 -1.3787,2.6948 -0.4701,1.5041 -0.4701,3.1649 z"
           inkscape:connector-curvature="0" />
        <path
           id="path4432"
           d="m 1830.5,581.31 13.474,0 q 0.063,-1.6608 -0.3447,-3.1962 -0.376,-1.5354 -1.2534,-2.7262 -0.8461,-1.1907 -2.2248,-1.9115 -1.3474,-0.72071 -3.2276,-0.72071 -1.3474,0 -2.6321,0.56404 -1.2848,0.56403 -2.2562,1.6608 -0.9714,1.0654 -1.5667,2.6322 -0.5954,1.5668 -0.5954,3.5722 0,1.7861 0.4074,3.3529 0.4073,1.5354 1.2534,2.6948 0.846,1.1281 2.1621,1.7548 1.3474,0.62671 3.2275,0.59537 2.7576,0 4.6377,-1.5354 1.8801,-1.5668 2.2248,-4.387 l -0.6267,0 q -0.4074,2.6635 -2.0995,4.0109 -1.6608,1.3161 -4.1989,1.3161 -1.7235,0 -2.9142,-0.59537 -1.1908,-0.59537 -1.9428,-1.6294 -0.7521,-1.0341 -1.1281,-2.4128 -0.3447,-1.4101 -0.376,-3.0395 z m 12.848,-0.62671 -12.848,0 q 0.094,-1.6921 0.6267,-3.0395 0.5327,-1.3474 1.3788,-2.2875 0.8773,-0.97139 2.0054,-1.4728 1.1594,-0.50136 2.4755,-0.50136 1.5668,0 2.7575,0.59537 1.1908,0.56403 1.9742,1.5668 0.8147,1.0027 1.222,2.3502 0.4074,1.3161 0.4074,2.7888 z"
           inkscape:connector-curvature="0" />
        <path
           id="path4434"
           d="m 1846.5,573.14 0,16.106 0.6267,0 0,-9.1186 q 0,-1.3474 0.3761,-2.5695 0.376,-1.2221 1.0967,-2.1308 0.752,-0.94006 1.8488,-1.4728 1.0967,-0.56403 2.5381,-0.56403 1.0341,0 1.9428,0.31335 0.9401,0.28202 1.6295,0.94006 0.7207,0.62671 1.128,1.6294 0.4074,0.97139 0.4074,2.3815 l 0,10.591 0.6267,0 0,-10.685 q 0,-1.4101 -0.4387,-2.4755 -0.4073,-1.0967 -1.1907,-1.8174 -0.7521,-0.75205 -1.8175,-1.1281 -1.034,-0.37602 -2.2875,-0.37602 -1.1907,0 -2.1621,0.34469 -0.9714,0.31335 -1.7234,0.90872 -0.7207,0.59537 -1.2221,1.3788 -0.47,0.78338 -0.6894,1.7234 l -0.063,0 0,-3.9796 -0.6267,0 z"
           inkscape:connector-curvature="0" />
      </g>
      <g
         id="g21"
         style="fill:#ff2ad4">
        <path
           id="path4436"
           d="m 1872.5,573.76 3.6349,0 0,-0.62671 -3.6349,0 0,-5.0763 -0.6267,0 0,5.0763 -2.9455,0 0,0.62671 2.9455,0 0,12.471 q 0,1.7234 0.752,2.3815 0.7834,0.62671 1.8802,0.62671 0.7207,0 0.9714,-0.0313 0.282,-0.0313 0.564,-0.0627 l 0,-0.62671 q -0.1567,0.0627 -0.5327,0.094 -0.376,0 -0.8461,0 -0.376,0 -0.752,-0.0313 -0.376,-0.0627 -0.6894,-0.31335 -0.3133,-0.25069 -0.5327,-0.75205 -0.188,-0.50137 -0.188,-1.4101 l 0,-12.346 z"
           inkscape:connector-curvature="0" />
        <path
           id="path4438"
           d="m 1878,581.31 13.474,0 q 0.063,-1.6608 -0.3447,-3.1962 -0.376,-1.5354 -1.2534,-2.7262 -0.846,-1.1907 -2.2248,-1.9115 -1.3474,-0.72071 -3.2275,-0.72071 -1.3474,0 -2.6322,0.56404 -1.2847,0.56403 -2.2561,1.6608 -0.9714,1.0654 -1.5668,2.6322 -0.5954,1.5668 -0.5954,3.5722 0,1.7861 0.4074,3.3529 0.4074,1.5354 1.2534,2.6948 0.8461,1.1281 2.1621,1.7548 1.3475,0.62671 3.2276,0.59537 2.7575,0 4.6376,-1.5354 1.8801,-1.5668 2.2248,-4.387 l -0.6267,0 q -0.4073,2.6635 -2.0995,4.0109 -1.6607,1.3161 -4.1989,1.3161 -1.7234,0 -2.9142,-0.59537 -1.1907,-0.59537 -1.9428,-1.6294 -0.752,-1.0341 -1.128,-2.4128 -0.3447,-1.4101 -0.3761,-3.0395 z m 12.848,-0.62671 -12.848,0 q 0.094,-1.6921 0.6267,-3.0395 0.5327,-1.3474 1.3788,-2.2875 0.8774,-0.97139 2.0055,-1.4728 1.1594,-0.50136 2.4755,-0.50136 1.5667,0 2.7575,0.59537 1.1907,0.56403 1.9741,1.5668 0.8147,1.0027 1.2221,2.3502 0.4073,1.3161 0.4073,2.7888 z"
           inkscape:connector-curvature="0" />
        <path
           id="path4440"
           d="m 1894.6,589.24 0,-9.1186 q 0,-1.3161 0.376,-2.5695 0.376,-1.2534 1.1594,-2.1935 0.7834,-0.97139 1.9741,-1.5041 1.2221,-0.56404 2.8829,-0.47003 l 0,-0.62671 q -1.4415,-0.0313 -2.5382,0.31335 -1.0654,0.34469 -1.8488,0.94006 -0.7834,0.59537 -1.2534,1.4101 -0.47,0.78339 -0.6894,1.6921 l -0.063,0 0,-3.9796 -0.6267,0 0,16.106 0.6267,0 z"
           inkscape:connector-curvature="0" />
        <path
           id="path4442"
           d="m 1902.7,589.24 0,-9.1186 q 0,-1.3161 0.376,-2.5695 0.3761,-1.2534 1.1594,-2.1935 0.7834,-0.97139 1.9742,-1.5041 1.222,-0.56404 2.8828,-0.47003 l 0,-0.62671 q -1.4414,-0.0313 -2.5381,0.31335 -1.0654,0.34469 -1.8488,0.94006 -0.7834,0.59537 -1.2534,1.4101 -0.4701,0.78339 -0.6894,1.6921 l -0.063,0 0,-3.9796 -0.6267,0 0,16.106 0.6267,0 z"
           inkscape:connector-curvature="0" />
        <path
           id="path4444"
           d="m 1910.1,578.12 0.6267,0 q 0.1567,-2.2561 1.5668,-3.4782 1.4101,-1.2534 3.9482,-1.2534 1.5981,0 2.5382,0.43869 0.9401,0.40736 1.4101,1.0654 0.5014,0.65805 0.6267,1.4414 0.1253,0.78338 0.1253,1.5041 0,0.90872 -0.376,1.4101 -0.3447,0.47003 -1.1281,0.72071 -0.752,0.21935 -1.9428,0.31335 -1.1907,0.0627 -2.8515,0.15668 -1.0027,0.0627 -2.0054,0.28202 -1.0028,0.18801 -1.7861,0.72071 -0.7834,0.50137 -1.2848,1.4101 -0.47,0.90873 -0.47,2.4128 0,2.1621 1.4727,3.2589 1.4728,1.0654 3.917,1.0654 1.2534,0 2.3188,-0.34469 1.0654,-0.31335 1.8801,-0.87739 0.846,-0.56403 1.3787,-1.2848 0.5641,-0.72071 0.8148,-1.5041 l 0.063,0 0,2.0995 q 0,0.90873 0.5014,1.2534 0.5327,0.31335 1.2221,0.31335 l 0.94,0 0,-0.62671 q -0.3133,0.0313 -0.6893,0.0627 -0.3447,0 -0.6581,-0.0627 -0.3133,-0.094 -0.5013,-0.31335 -0.1881,-0.21935 -0.1881,-0.68938 l 0,-10.247 q -0.031,-1.3161 -0.47,-2.1935 -0.4387,-0.87739 -1.1594,-1.4101 -0.7207,-0.56404 -1.6921,-0.78338 -0.9401,-0.21935 -2.0055,-0.21935 -1.5041,0 -2.6321,0.40736 -1.0968,0.40736 -1.8802,1.1281 -0.752,0.72071 -1.1594,1.7234 -0.4073,0.97139 -0.47,2.0995 z m 10.842,1.6608 0,2.9768 q 0,1.1908 -0.4387,2.3188 -0.4073,1.1281 -1.2534,2.0055 -0.8147,0.84606 -2.0368,1.3788 -1.222,0.5327 -2.7888,0.5327 -1.3161,0 -2.2248,-0.31335 -0.8774,-0.34469 -1.4415,-0.84606 -0.564,-0.5327 -0.8147,-1.1907 -0.2193,-0.68938 -0.2193,-1.3788 0,-1.2848 0.4073,-2.0681 0.4074,-0.81472 1.0968,-1.2534 0.6894,-0.47003 1.5667,-0.62671 0.9088,-0.18801 1.8488,-0.25068 0.9401,-0.0627 1.9115,-0.094 1.0027,-0.0313 1.8488,-0.15668 0.846,-0.12534 1.5041,-0.34469 0.658,-0.25068 0.9714,-0.68937 l 0.063,0 z"
           inkscape:connector-curvature="0" />
        <path
           id="path4446"
           d="m 1936.1,588.62 -11.782,0 11.281,-14.696 0,-0.78339 -11.093,0 0,0.62671 10.435,0 -11.281,14.696 0,0.78338 12.44,0 0,-0.62671 z"
           inkscape:connector-curvature="0" />
        <path
           id="path4448"
           d="m 1948.9,588.62 -11.782,0 11.281,-14.696 0,-0.78339 -11.093,0 0,0.62671 10.435,0 -11.281,14.696 0,0.78338 12.44,0 0,-0.62671 z"
           inkscape:connector-curvature="0" />
        <path
           id="path4450"
           d="m 1950.6,581.19 q 0,-1.5041 0.4074,-2.9142 0.4387,-1.4101 1.2847,-2.4755 0.8461,-1.0967 2.0682,-1.7548 1.2534,-0.65804 2.8828,-0.65804 1.5981,0 2.8202,0.65804 1.2534,0.65804 2.0995,1.7548 0.846,1.0654 1.2534,2.4755 0.4387,1.4101 0.4387,2.9142 0,1.5354 -0.4387,2.9455 -0.4074,1.4101 -1.2534,2.5068 -0.8461,1.0654 -2.0995,1.7234 -1.2221,0.62671 -2.8202,0.62671 -1.6294,0 -2.8828,-0.62671 -1.2221,-0.65804 -2.0682,-1.7234 -0.846,-1.0967 -1.2847,-2.5068 -0.4074,-1.4101 -0.4074,-2.9455 z m -0.6267,0 q 0,1.6608 0.47,3.1962 0.4701,1.5041 1.3788,2.6635 0.9401,1.1594 2.2875,1.8488 1.3474,0.68938 3.1022,0.68938 1.7861,0 3.1335,-0.68938 1.3474,-0.68937 2.2562,-1.8488 0.94,-1.1594 1.4101,-2.6635 0.47,-1.5354 0.47,-3.1962 0,-1.6608 -0.47,-3.1649 -0.4701,-1.5354 -1.4101,-2.6948 -0.9088,-1.1594 -2.2562,-1.8488 -1.3474,-0.72071 -3.1022,-0.72071 -1.7861,0 -3.1335,0.72071 -1.3474,0.68938 -2.2875,1.8488 -0.9087,1.1594 -1.3788,2.6948 -0.47,1.5041 -0.47,3.1649 z"
           inkscape:connector-curvature="0" />
      </g>
    </g>
  </g>
</svg>
