<?xml version="1.0" encoding="UTF-8" standalone="no"?>
<!-- Created with Inkscape (http://www.inkscape.org/) -->

<svg
   xmlns:dc="http://purl.org/dc/elements/1.1/"
   xmlns:cc="http://creativecommons.org/ns#"
   xmlns:rdf="http://www.w3.org/1999/02/22-rdf-syntax-ns#"
   xmlns:svg="http://www.w3.org/2000/svg"
   xmlns="http://www.w3.org/2000/svg"
   xmlns:sodipodi="http://sodipodi.sourceforge.net/DTD/sodipodi-0.dtd"
   xmlns:inkscape="http://www.inkscape.org/namespaces/inkscape"
   id="svg4211"
   height="291.02527"
   width="710.01758"
   version="1.1"
   viewBox="0 0 710.01759 291.02527"
   inkscape:version="0.91 r13725"
   sodipodi:docname="LogoBlanco.svg">
  <defs
     id="defs31" />
  <sodipodi:namedview
     pagecolor="#ffffff"
     bordercolor="#666666"
     borderopacity="1"
     objecttolerance="10"
     gridtolerance="10"
     guidetolerance="10"
     inkscape:pageopacity="0"
     inkscape:pageshadow="2"
     inkscape:window-width="1921"
     inkscape:window-height="1045"
     id="namedview29"
     showgrid="false"
     fit-margin-top="1"
     fit-margin-left="1"
     fit-margin-right="1"
     units="px"
     fit-margin-bottom="1"
     inkscape:zoom="0.63429568"
     inkscape:cx="379.36619"
     inkscape:cy="24.783785"
     inkscape:window-x="0"
     inkscape:window-y="0"
     inkscape:window-maximized="0"
     inkscape:current-layer="svg4211" />
  <metadata
     id="metadata4216">
    <rdf:RDF>
      <cc:Work
         rdf:about="">
        <dc:format>image/svg+xml</dc:format>
        <dc:type
           rdf:resource="http://purl.org/dc/dcmitype/StillImage" />
        <dc:title></dc:title>
      </cc:Work>
    </rdf:RDF>
  </metadata>
  <g
     id="layer1"
     style="fill:#ffffff"
     transform="translate(-11.424944,-139.70203)">
    <g
       id="text4919"
       transform="matrix(1.6698,0,0,1.6698,-226.38,-538.07)">
      <path
         id="path4231"
         d="m 245.05,535.08 q -15.625,12.237 -38.028,12.237 -15.061,0 -27.109,-5.4595 -11.86,-5.4595 -20.144,-14.872 -8.0951,-9.6012 -12.425,-22.403 -4.3299,-12.99 -4.3299,-27.674 0,-14.684 4.3299,-27.486 4.3299,-12.99 12.425,-22.403 8.2833,-9.6012 20.144,-15.061 12.048,-5.4595 27.109,-5.4595 15.061,0 26.921,5.4595 11.86,5.4595 19.955,15.061 8.2834,9.4129 12.613,22.403 4.3299,12.802 4.3299,27.486 0,16.567 -5.2712,30.121 -5.083,13.555 -14.872,23.156 l 20.897,15.061 -4.3299,5.836 -22.214,-16.002 z m -0.94128,-9.6011 q 9.0364,-9.0364 13.743,-21.461 4.7064,-12.425 4.7064,-27.109 0,-12.99 -3.7652,-24.474 -3.7652,-11.484 -10.919,-19.955 -7.1538,-8.6599 -17.508,-13.743 -10.166,-5.083 -23.344,-5.083 -13.178,0 -23.532,5.083 -10.354,5.083 -17.508,13.743 -7.1538,8.4716 -10.919,19.955 -3.7652,11.484 -3.7652,24.474 0,12.99 3.7652,24.474 3.7652,11.484 10.919,20.144 7.1538,8.4716 17.508,13.555 10.354,5.083 23.532,5.083 18.638,0 31.439,-9.9777 l -20.332,-14.496 4.3299,-5.836 21.65,15.625 z"
         inkscape:connector-curvature="0" />
      <path
         id="path4233"
         d="m 364.06,544.12 -7.1538,0 0,-20.708 -0.37652,0 q -1.8826,5.4595 -5.4595,9.7894 -3.3886,4.1417 -8.0951,7.1538 -4.5182,3.0121 -9.9777,4.5182 -5.4595,1.5061 -11.107,1.5061 -8.4716,0 -14.496,-2.0708 -5.836,-2.0708 -9.6012,-5.4595 -3.7652,-3.3886 -6.0242,-7.5303 -2.0708,-4.3299 -3.0121,-8.6599 -0.94129,-4.3299 -1.1295,-8.2834 -0.18826,-4.1417 -0.18826,-7.1538 l 0,-59.866 7.1538,0 0,61.184 q 0,3.7652 0.56477,9.2246 0.56477,5.2712 3.2004,10.354 2.8239,4.8947 8.2834,8.4716 5.4595,3.5769 15.437,3.5769 8.0951,0 14.496,-3.0121 6.589,-3.0121 11.107,-8.2833 4.5182,-5.4595 6.7773,-12.802 2.4474,-7.5303 2.4474,-16.378 l 0,-52.336 7.1538,0 0,96.765 z"
         inkscape:connector-curvature="0" />
      <path
         id="path4235"
         d="m 388.07,496.68 0,1.1295 q 0,8.4716 2.2591,16.19 2.2591,7.7186 6.589,13.555 4.5182,5.836 11.107,9.2246 6.7773,3.3886 15.625,3.3886 14.496,0 22.967,-7.5303 8.4716,-7.7186 11.672,-21.273 l 7.1538,0 q -3.2004,16.943 -13.931,25.98 -10.542,9.0364 -28.05,9.0364 -10.731,0 -18.826,-3.7652 -7.9068,-3.9534 -13.366,-10.542 -5.2712,-6.7773 -7.9068,-15.814 -2.6356,-9.2246 -2.6356,-19.767 0,-10.166 2.6356,-19.391 2.8239,-9.4129 8.2834,-16.378 5.4595,-7.1538 13.555,-11.295 8.2833,-4.3299 19.391,-4.3299 10.166,0 17.884,3.7652 7.9068,3.7652 13.178,10.354 5.2712,6.4008 7.9068,15.061 2.8239,8.4716 2.8239,18.261 0,0.94128 -0.18825,2.2591 0,1.1296 0,1.8826 l -78.127,0 z m 70.973,-6.2125 q -0.37652,-7.9068 -2.6356,-14.872 -2.2591,-7.1538 -6.7773,-12.425 -4.3299,-5.4595 -10.731,-8.6599 -6.2125,-3.2004 -14.308,-3.2004 -8.6599,0 -15.249,3.3886 -6.589,3.2004 -11.107,8.6599 -4.5182,5.2712 -6.9655,12.425 -2.4474,7.1538 -3.0121,14.684 l 70.785,0 z"
         inkscape:connector-curvature="0" />
      <path
         id="path4237"
         d="m 478.17,495.74 q 0,-10.354 2.8239,-19.391 3.0121,-9.2246 8.6599,-16.19 5.6477,-6.9655 13.931,-10.919 8.2833,-4.1417 19.014,-4.1417 10.7307,0 19.014,4.1417 8.2833,3.9534 13.931,10.919 5.6477,6.9655 8.4716,16.19 3.0121,9.0364 3.0121,19.391 0,10.354 -3.0121,19.579 -2.8239,9.2246 -8.4716,16.19 -5.6477,6.7773 -13.931,10.919 -8.2833,3.9534 -19.014,3.9534 -10.7307,0 -19.014,-3.9534 -8.2834,-4.1417 -13.931,-10.919 -5.6477,-6.9655 -8.6599,-16.19 -2.8239,-9.2246 -2.8239,-19.579 z m 7.1538,0 q 0,8.6599 2.4474,16.755 2.4474,7.9068 7.1538,14.119 4.7064,6.2125 11.672,9.9777 6.9655,3.5769 16.002,3.5769 9.0364,0 16.002,-3.5769 6.9655,-3.7652 11.672,-9.9777 4.7064,-6.2125 7.1538,-14.119 2.4474,-8.0951 2.4474,-16.755 0,-8.6599 -2.4474,-16.567 -2.4474,-8.0951 -7.1538,-14.308 -4.7064,-6.2125 -11.672,-9.7894 -6.9655,-3.7652 -16.002,-3.7652 -9.0364,0 -16.002,3.7652 -6.9655,3.5769 -11.672,9.7894 -4.7064,6.2125 -7.1538,14.308 -2.4474,7.9068 -2.4474,16.567 z"
         inkscape:connector-curvature="0" />
    </g>
    <g
       id="text6377"
       transform="matrix(1.6698,0,0,1.6698,-226.38,-538.07)">
      <path
         id="path4363"
         d="m 345.7,556.87 0,10.779 -0.0627,0 q -0.56404,-2.1935 -2.2248,-3.5409 -1.66076,-1.3474 -4.2303,-1.3474 -1.6608,0 -2.9455,0.68938 -1.2848,0.68937 -2.1621,1.8488 -0.84605,1.1594 -1.3161,2.6948 -0.4387,1.5354 -0.4387,3.2275 0,1.8174 0.47003,3.3529 0.47003,1.5354 1.3474,2.6635 0.90873,1.0967 2.1621,1.7234 1.2848,0.62671 2.8828,0.62671 2.4755,0 4.1363,-1.3474 1.6921,-1.3474 2.3188,-3.5096 l 0.0627,0 0,4.5123 0.6267,0 0,-22.373 -0.6267,0 z m 0,14.352 q 0,1.5668 -0.4387,2.9769 -0.43869,1.4101 -1.2848,2.4755 -0.81472,1.0654 -2.0368,1.6921 -1.1908,0.62671 -2.7575,0.62671 -1.5668,0 -2.7575,-0.62671 -1.1594,-0.6267 -1.9428,-1.6921 -0.75205,-1.0967 -1.1594,-2.5068 -0.37602,-1.4101 -0.37602,-2.9455 0,-1.4101 0.34469,-2.7888 0.37602,-1.4101 1.1281,-2.5068 0.75205,-1.1281 1.9428,-1.8174 1.1908,-0.72071 2.8202,-0.72071 2.9455,0 4.7316,2.0368 1.7861,2.0055 1.7861,5.797 z"
         inkscape:connector-curvature="0" />
      <path
         id="path4365"
         d="m 350.63,560.03 0,-3.1649 -0.6267,0 0,3.1649 0.6267,0 z m 0,19.209 0,-16.106 -0.6267,0 0,16.106 0.6267,0 z"
         inkscape:connector-curvature="0" />
      <path
         id="path4367"
         d="m 364.54,567.9 0.62671,0 q 0,-2.6948 -1.5668,-3.9169 -1.5668,-1.2221 -4.2616,-1.2221 -1.5041,0 -2.5382,0.37602 -1.0341,0.37603 -1.6921,0.9714 -0.65804,0.59537 -0.94006,1.3161 -0.28202,0.72072 -0.28202,1.3788 0,1.3161 0.47003,2.0995 0.47003,0.78338 1.4728,1.2221 0.68938,0.31335 1.5668,0.56403 0.87739,0.25068 2.0368,0.5327 1.0341,0.25069 2.0368,0.50137 1.0027,0.25068 1.7548,0.68938 0.78339,0.40736 1.2534,1.0654 0.50136,0.65804 0.50136,1.7234 0,1.0341 -0.50136,1.7548 -0.47003,0.72071 -1.2221,1.1907 -0.75205,0.4387 -1.6921,0.65805 -0.90872,0.18801 -1.7861,0.18801 -2.8515,0 -4.387,-1.2534 -1.5041,-1.2848 -1.5041,-4.0109 l -0.62671,0 q 0,3.0395 1.6294,4.4496 1.6608,1.4101 4.8883,1.4101 1.0341,0 2.0681,-0.25068 1.0654,-0.21935 1.8801,-0.75205 0.84605,-0.5327 1.3474,-1.3788 0.5327,-0.84605 0.5327,-2.0681 0,-1.1594 -0.47003,-1.8801 -0.43869,-0.72071 -1.1907,-1.1907 -0.72072,-0.47003 -1.6608,-0.72072 -0.90872,-0.28201 -1.8488,-0.5327 -1.3161,-0.34469 -2.3188,-0.59537 -0.97139,-0.25068 -1.8174,-0.59537 -0.81472,-0.34469 -1.3161,-0.9714 -0.47003,-0.65804 -0.47003,-1.8488 0,-0.21935 0.12534,-0.78338 0.12534,-0.56404 0.59537,-1.1281 0.47003,-0.59537 1.4414,-1.0341 0.97139,-0.47003 2.6635,-0.47003 1.1594,0 2.0995,0.25068 0.97139,0.25068 1.6608,0.81472 0.68938,0.5327 1.0654,1.3788 0.37603,0.84606 0.37603,2.0681 z"
         inkscape:connector-curvature="0" />
      <path
         id="path4369"
         d="m 368.23,571.31 13.474,0 q 0.0627,-1.6608 -0.34469,-3.1962 -0.37602,-1.5354 -1.2534,-2.7262 -0.84606,-1.1907 -2.2248,-1.9115 -1.3474,-0.72071 -3.2275,-0.72071 -1.3474,0 -2.6322,0.56404 -1.2848,0.56403 -2.2562,1.6608 -0.97139,1.0654 -1.5668,2.6322 -0.59537,1.5668 -0.59537,3.5722 0,1.7861 0.40736,3.3529 0.40735,1.5354 1.2534,2.6948 0.84605,1.1281 2.1621,1.7548 1.3474,0.62671 3.2275,0.59537 2.7575,0 4.6376,-1.5354 1.8801,-1.5668 2.2248,-4.387 l -0.62671,0 q -0.40736,2.6635 -2.0995,4.0109 -1.6608,1.3161 -4.1989,1.3161 -1.7234,0 -2.9142,-0.59537 -1.1907,-0.59537 -1.9428,-1.6294 -0.75205,-1.0341 -1.1281,-2.4128 -0.34469,-1.4101 -0.37603,-3.0395 z m 12.847,-0.62671 -12.847,0 q 0.094,-1.6921 0.62671,-3.0395 0.5327,-1.3474 1.3788,-2.2875 0.87739,-0.97139 2.0055,-1.4728 1.1594,-0.50136 2.4755,-0.50136 1.5668,0 2.7575,0.59537 1.1907,0.56403 1.9741,1.5668 0.81472,1.0027 1.2221,2.3502 0.40735,1.3161 0.40735,2.7888 z"
         inkscape:connector-curvature="0" />
      <path
         id="path4371"
         d="m 386.19,561.07 0.62671,0 q 0,-0.28202 0.094,-0.59537 0.12534,-0.34469 0.31335,-0.62671 0.21935,-0.28202 0.50137,-0.43869 0.28201,-0.18801 0.59537,-0.18801 0.50136,0 0.97139,0.28201 0.47003,0.28202 0.94006,0.62671 0.47003,0.34469 0.9714,0.62671 0.50137,0.28202 1.0967,0.28202 1.0967,0 1.6294,-0.72072 0.53271,-0.72071 0.53271,-1.6294 l -0.62671,0 q 0,0.65805 -0.40736,1.1908 -0.40736,0.5327 -1.1281,0.5327 -0.47003,0 -0.94006,-0.28202 -0.47003,-0.28202 -0.9714,-0.62671 -0.50136,-0.34469 -1.0341,-0.6267 -0.50136,-0.28202 -1.0341,-0.28202 -0.40736,0 -0.81472,0.21935 -0.37603,0.21934 -0.68938,0.59537 -0.28202,0.34469 -0.47003,0.78338 -0.15668,0.4387 -0.15668,0.87739 z m -1.9741,2.0681 0,16.106 0.6267,0 0,-9.1186 q 0,-1.3474 0.37603,-2.5695 0.37602,-1.2221 1.0967,-2.1308 0.75204,-0.94006 1.8488,-1.4728 1.0967,-0.56403 2.5382,-0.56403 1.0341,0 1.9428,0.31335 0.94006,0.28202 1.6294,0.94006 0.72072,0.62671 1.1281,1.6294 0.40736,0.97139 0.40736,2.3815 l 0,10.591 0.6267,0 0,-10.685 q 0,-1.4101 -0.43869,-2.4755 -0.40736,-1.0967 -1.1908,-1.8174 -0.75204,-0.75205 -1.8174,-1.1281 -1.0341,-0.37602 -2.2875,-0.37602 -1.1907,0 -2.1621,0.34469 -0.9714,0.31335 -1.7234,0.90872 -0.72071,0.59537 -1.2221,1.3788 -0.47003,0.78338 -0.68937,1.7234 l -0.0627,0 0,-3.9796 -0.6267,0 z"
         inkscape:connector-curvature="0" />
      <path
         id="path4373"
         d="m 399.66,571.19 q 0,-1.5041 0.40735,-2.9142 0.4387,-1.4101 1.2848,-2.4755 0.84606,-1.0967 2.0681,-1.7548 1.2534,-0.65804 2.8828,-0.65804 1.5981,0 2.8202,0.65804 1.2534,0.65804 2.0995,1.7548 0.84605,1.0654 1.2534,2.4755 0.4387,1.4101 0.4387,2.9142 0,1.5354 -0.4387,2.9455 -0.40736,1.4101 -1.2534,2.5068 -0.84606,1.0654 -2.0995,1.7234 -1.2221,0.62671 -2.8202,0.62671 -1.6294,0 -2.8828,-0.62671 -1.2221,-0.65804 -2.0681,-1.7234 -0.84605,-1.0967 -1.2848,-2.5068 Q 399.66,572.7254 399.66,571.19 Z m -0.62671,0 q 0,1.6608 0.47003,3.1962 0.47003,1.5041 1.3788,2.6635 0.94006,1.1594 2.2875,1.8488 1.3474,0.68938 3.1022,0.68938 1.7861,0 3.1335,-0.68938 1.3474,-0.68937 2.2561,-1.8488 0.94006,-1.1594 1.4101,-2.6635 0.47003,-1.5354 0.47003,-3.1962 0,-1.6608 -0.47003,-3.1649 -0.47003,-1.5354 -1.4101,-2.6948 -0.90872,-1.1594 -2.2561,-1.8488 -1.3474,-0.72071 -3.1022,-0.72071 -1.7861,0 -3.1335,0.72071 -1.3474,0.68938 -2.2875,1.8488 -0.90872,1.1594 -1.3788,2.6948 -0.47003,1.5041 -0.47003,3.1649 z"
         inkscape:connector-curvature="0" />
      <path
         id="path4375"
         d="m 424.48,571.31 13.474,0 q 0.0627,-1.6608 -0.34469,-3.1962 -0.37603,-1.5354 -1.2534,-2.7262 -0.84605,-1.1907 -2.2248,-1.9115 -1.3474,-0.72071 -3.2275,-0.72071 -1.3474,0 -2.6322,0.56404 -1.2848,0.56403 -2.2562,1.6608 -0.9714,1.0654 -1.5668,2.6322 -0.59537,1.5668 -0.59537,3.5722 0,1.7861 0.40736,3.3529 0.40736,1.5354 1.2534,2.6948 0.84606,1.1281 2.1621,1.7548 1.3474,0.62671 3.2275,0.59537 2.7575,0 4.6376,-1.5354 1.8801,-1.5668 2.2248,-4.387 l -0.6267,0 q -0.40736,2.6635 -2.0995,4.0109 -1.6608,1.3161 -4.1989,1.3161 -1.7234,0 -2.9142,-0.59537 -1.1908,-0.59537 -1.9428,-1.6294 -0.75204,-1.0341 -1.1281,-2.4128 -0.34469,-1.4101 -0.37602,-3.0395 z m 12.847,-0.62671 -12.847,0 q 0.094,-1.6921 0.62671,-3.0395 0.5327,-1.3474 1.3788,-2.2875 0.87739,-0.97139 2.0055,-1.4728 1.1594,-0.50136 2.4755,-0.50136 1.5668,0 2.7575,0.59537 1.1907,0.56403 1.9741,1.5668 0.81472,1.0027 1.2221,2.3502 0.40736,1.3161 0.40736,2.7888 z"
         inkscape:connector-curvature="0" />
      <path
         id="path4377"
         d="m 440.46,563.14 0,16.106 0.62671,0 0,-9.1186 q 0,-1.3474 0.37602,-2.5695 0.37603,-1.2221 1.0967,-2.1308 0.75205,-0.94006 1.8488,-1.4728 1.0967,-0.56403 2.5382,-0.56403 1.0341,0 1.9428,0.31335 0.94006,0.28202 1.6294,0.94006 0.72071,0.62671 1.1281,1.6294 0.40736,0.97139 0.40736,2.3815 l 0,10.591 0.62671,0 0,-10.685 q 0,-1.4101 -0.4387,-2.4755 -0.40736,-1.0967 -1.1907,-1.8174 -0.75205,-0.75205 -1.8174,-1.1281 -1.0341,-0.37602 -2.2875,-0.37602 -1.1908,0 -2.1621,0.34469 -0.9714,0.31335 -1.7234,0.90872 -0.72071,0.59537 -1.2221,1.3788 -0.47003,0.78338 -0.68938,1.7234 l -0.0627,0 0,-3.9796 -0.62671,0 z"
         inkscape:connector-curvature="0" />
      <g
         id="g19"
         style="fill:#ff2ad4">
        <path
           id="path4379"
           d="m 466.54,563.76 3.6349,0 0,-0.62671 -3.6349,0 0,-5.0763 -0.6267,0 0,5.0763 -2.9455,0 0,0.62671 2.9455,0 0,12.471 q 0,1.7234 0.75205,2.3815 0.78338,0.62671 1.8801,0.62671 0.72071,0 0.97139,-0.0313 0.28202,-0.0313 0.56404,-0.0627 l 0,-0.62671 q -0.15668,0.0627 -0.5327,0.094 -0.37603,0 -0.84606,0 -0.37602,0 -0.75205,-0.0313 -0.37602,-0.0627 -0.68937,-0.31335 -0.31336,-0.25069 -0.5327,-0.75205 -0.18802,-0.50137 -0.18802,-1.4101 l 0,-12.346 z"
           inkscape:connector-curvature="0" />
        <path
           id="path4381"
           d="m 472.03,571.31 13.474,0 q 0.0627,-1.6608 -0.34469,-3.1962 -0.37603,-1.5354 -1.2534,-2.7262 -0.84606,-1.1907 -2.2248,-1.9115 -1.3474,-0.72071 -3.2276,-0.72071 -1.3474,0 -2.6322,0.56404 -1.2848,0.56403 -2.2562,1.6608 -0.97139,1.0654 -1.5668,2.6322 -0.59537,1.5668 -0.59537,3.5722 0,1.7861 0.40736,3.3529 0.40736,1.5354 1.2534,2.6948 0.84605,1.1281 2.1621,1.7548 1.3474,0.62671 3.2275,0.59537 2.7575,0 4.6376,-1.5354 1.8801,-1.5668 2.2248,-4.387 l -0.62671,0 q -0.40736,2.6635 -2.0995,4.0109 -1.6608,1.3161 -4.1989,1.3161 -1.7234,0 -2.9142,-0.59537 -1.1908,-0.59537 -1.9428,-1.6294 -0.75205,-1.0341 -1.1281,-2.4128 -0.34469,-1.4101 -0.37602,-3.0395 z m 12.847,-0.62671 -12.847,0 q 0.094,-1.6921 0.62671,-3.0395 0.5327,-1.3474 1.3788,-2.2875 0.87739,-0.97139 2.0055,-1.4728 1.1594,-0.50136 2.4755,-0.50136 1.5668,0 2.7575,0.59537 1.1907,0.56403 1.9741,1.5668 0.81472,1.0027 1.2221,2.3502 0.40736,1.3161 0.40736,2.7888 z"
           inkscape:connector-curvature="0" />
        <path
           id="path4383"
           d="m 488.64,579.24 0,-9.1186 q 0,-1.3161 0.37603,-2.5695 0.37602,-1.2534 1.1594,-2.1935 0.78339,-0.97139 1.9741,-1.5041 1.2221,-0.56404 2.8828,-0.47003 l 0,-0.62671 q -1.4414,-0.0313 -2.5382,0.31335 -1.0654,0.34469 -1.8488,0.94006 -0.78338,0.59537 -1.2534,1.4101 -0.47003,0.78339 -0.68938,1.6921 l -0.0627,0 0,-3.9796 -0.6267,0 0,16.106 0.6267,0 z"
           inkscape:connector-curvature="0" />
        <path
           id="path4385"
           d="m 496.72,579.24 0,-9.1186 q 0,-1.3161 0.37602,-2.5695 0.37602,-1.2534 1.1594,-2.1935 0.78338,-0.97139 1.9741,-1.5041 1.2221,-0.56404 2.8828,-0.47003 l 0,-0.62671 q -1.4414,-0.0313 -2.5382,0.31335 -1.0654,0.34469 -1.8488,0.94006 -0.78338,0.59537 -1.2534,1.4101 -0.47003,0.78339 -0.68937,1.6921 l -0.0627,0 0,-3.9796 -0.62671,0 0,16.106 0.62671,0 z"
           inkscape:connector-curvature="0" />
        <path
           id="path4387"
           d="m 504.14,568.12 0.62671,0 q 0.15667,-2.2561 1.5668,-3.4782 1.4101,-1.2534 3.9483,-1.2534 1.5981,0 2.5382,0.43869 0.94006,0.40736 1.4101,1.0654 0.50137,0.65805 0.62671,1.4414 0.12534,0.78338 0.12534,1.5041 0,0.90872 -0.37603,1.4101 -0.34469,0.47003 -1.1281,0.72071 -0.75205,0.21935 -1.9428,0.31335 -1.1907,0.0627 -2.8515,0.15668 -1.0027,0.0627 -2.0055,0.28202 -1.0027,0.18801 -1.7861,0.72071 -0.78339,0.50137 -1.2848,1.4101 -0.47003,0.90873 -0.47003,2.4128 0,2.1621 1.4728,3.2589 1.4728,1.0654 3.9169,1.0654 1.2534,0 2.3188,-0.34469 1.0654,-0.31335 1.8801,-0.87739 0.84606,-0.56403 1.3788,-1.2848 0.56403,-0.72071 0.81472,-1.5041 l 0.0627,0 0,2.0995 q 0,0.90873 0.50136,1.2534 0.5327,0.31335 1.2221,0.31335 l 0.94006,0 0,-0.62671 q -0.31335,0.0313 -0.68938,0.0627 -0.34468,0 -0.65804,-0.0627 -0.31335,-0.094 -0.50136,-0.31335 -0.18802,-0.21935 -0.18802,-0.68938 l 0,-10.247 q -0.0313,-1.3161 -0.47003,-2.1935 -0.43869,-0.87739 -1.1594,-1.4101 -0.72072,-0.56404 -1.6921,-0.78338 -0.94006,-0.21935 -2.0055,-0.21935 -1.5041,0 -2.6322,0.40736 -1.0967,0.40736 -1.8801,1.1281 -0.75205,0.72071 -1.1594,1.7234 -0.40736,0.97139 -0.47003,2.0995 z m 10.842,1.6608 0,2.9768 q 0,1.1908 -0.4387,2.3188 -0.40736,1.1281 -1.2534,2.0055 -0.81472,0.84606 -2.0368,1.3788 -1.2221,0.5327 -2.7888,0.5327 -1.3161,0 -2.2248,-0.31335 -0.87739,-0.34469 -1.4414,-0.84606 -0.56404,-0.5327 -0.81472,-1.1907 -0.21935,-0.68938 -0.21935,-1.3788 0,-1.2848 0.40736,-2.0681 0.40736,-0.81472 1.0967,-1.2534 0.68938,-0.47003 1.5668,-0.62671 0.90872,-0.18801 1.8488,-0.25068 0.94006,-0.0627 1.9115,-0.094 1.0027,-0.0313 1.8488,-0.15668 0.84606,-0.12534 1.5041,-0.34469 0.65804,-0.25068 0.9714,-0.68937 l 0.0627,0 z"
           inkscape:connector-curvature="0" />
        <path
           id="path4389"
           d="m 530.1,578.62 -11.782,0 11.281,-14.696 0,-0.78339 -11.093,0 0,0.62671 10.435,0 -11.281,14.696 0,0.78338 12.44,0 0,-0.62671 z"
           inkscape:connector-curvature="0" />
        <path
           id="path4391"
           d="m 542.89,578.62 -11.782,0 11.281,-14.696 0,-0.78339 -11.093,0 0,0.62671 10.435,0 -11.281,14.696 0,0.78338 12.44,0 0,-0.62671 z"
           inkscape:connector-curvature="0" />
        <path
           id="path4393"
           d="m 544.59,571.19 q 0,-1.5041 0.40736,-2.9142 0.43869,-1.4101 1.2848,-2.4755 0.84605,-1.0967 2.0681,-1.7548 1.2534,-0.65804 2.8828,-0.65804 1.5981,0 2.8202,0.65804 1.2534,0.65804 2.0995,1.7548 0.84605,1.0654 1.2534,2.4755 0.4387,1.4101 0.4387,2.9142 0,1.5354 -0.4387,2.9455 -0.40736,1.4101 -1.2534,2.5068 -0.84605,1.0654 -2.0995,1.7234 -1.2221,0.62671 -2.8202,0.62671 -1.6294,0 -2.8828,-0.62671 -1.2221,-0.65804 -2.0681,-1.7234 -0.84606,-1.0967 -1.2848,-2.5068 Q 544.59,572.7254 544.59,571.19 Z m -0.62671,0 q 0,1.6608 0.47003,3.1962 0.47003,1.5041 1.3788,2.6635 0.94006,1.1594 2.2875,1.8488 1.3474,0.68938 3.1022,0.68938 1.7861,0 3.1335,-0.68938 1.3474,-0.68937 2.2561,-1.8488 0.94007,-1.1594 1.4101,-2.6635 0.47003,-1.5354 0.47003,-3.1962 0,-1.6608 -0.47003,-3.1649 -0.47003,-1.5354 -1.4101,-2.6948 -0.90872,-1.1594 -2.2561,-1.8488 -1.3474,-0.72071 -3.1022,-0.72071 -1.7861,0 -3.1335,0.72071 -1.3474,0.68938 -2.2875,1.8488 -0.90873,1.1594 -1.3788,2.6948 -0.47003,1.5041 -0.47003,3.1649 z"
           inkscape:connector-curvature="0" />
      </g>
    </g>
  </g>
</svg>
